<svg xmlns="http://www.w3.org/2000/svg" role="img" class="iconify iconify--logos" viewBox="0 0 64 80" x="0px" y="0px"><g data-name="ExpensesTracker-logo"><path fill="#023047" d="M11.293,21.707a.9994.9994,0,0,1,0-1.414l11-11a.9994.9994,0,0,1,1.414,0L29,14.5859,39.5859,4H36a1,1,0,0,1,0-2h6a1,1,0,0,1,1,1V9a1,1,0,0,1-2,0V5.4141L29.707,16.707a.9994.9994,0,0,1-1.414,0L23,11.4141,12.707,21.707a.9995.9995,0,0,1-1.414,0ZM62,35V57a5.0018,5.0018,0,0,1-5,5H37a5.0018,5.0018,0,0,1-5-5V50H5a3.0088,3.0088,0,0,1-3-3V3A1,1,0,0,1,4,3V47a1.0029,1.0029,0,0,0,1,1H7V31a2.0059,2.0059,0,0,1,2-2h4a2.0059,2.0059,0,0,1,2,2V48h3V26a2.0059,2.0059,0,0,1,2-2h4a2.0059,2.0059,0,0,1,2,2V48h3V21a2.0059,2.0059,0,0,1,2-2h4a2.0059,2.0059,0,0,1,2,2v9h3V16a2.0059,2.0059,0,0,1,2-2h4a2.0059,2.0059,0,0,1,2,2V30h9A5.0018,5.0018,0,0,1,62,35Zm-2,0a3.0088,3.0088,0,0,0-3-3H37a3.0088,3.0088,0,0,0-3,3V57a3.0088,3.0088,0,0,0,3,3H57a3.0088,3.0088,0,0,0,3-3Zm-3-1H37a1.0029,1.0029,0,0,0-1,1v6a1.0029,1.0029,0,0,0,1,1H57a1.0029,1.0029,0,0,0,1-1V35A1.0029,1.0029,0,0,0,57,34ZM49,44H45a1.0029,1.0029,0,0,0-1,1v4a1.0029,1.0029,0,0,0,1,1h4a1.0029,1.0029,0,0,0,1-1V45A1.0029,1.0029,0,0,0,49,44Zm-8,0H37a1.0029,1.0029,0,0,0-1,1v4a1.0029,1.0029,0,0,0,1,1h4a1.0029,1.0029,0,0,0,1-1V45A1.0029,1.0029,0,0,0,41,44Zm8,8H45a1.0029,1.0029,0,0,0-1,1v4a1.0029,1.0029,0,0,0,1,1h4a1.0029,1.0029,0,0,0,1-1V53A1.0029,1.0029,0,0,0,49,52Zm-8,0H37a1.0029,1.0029,0,0,0-1,1v4a1.0029,1.0029,0,0,0,1,1h4a1.0029,1.0029,0,0,0,1-1V53A1.0029,1.0029,0,0,0,41,52Zm16,0H53a1.0029,1.0029,0,0,0-1,1v4a1.0029,1.0029,0,0,0,1,1h4a1.0029,1.0029,0,0,0,1-1V53A1.0029,1.0029,0,0,0,57,52Zm0-8H53a1.0029,1.0029,0,0,0-1,1v4a1.0029,1.0029,0,0,0,1,1h4a1.0029,1.0029,0,0,0,1-1V45A1.0029,1.0029,0,0,0,57,44Z"/></g></svg>